<mxfile host="app.diagrams.net" modified="2023-10-21T15:05:16.444Z" agent="Mozilla/5.0 (Windows NT 10.0; Win64; x64) AppleWebKit/537.36 (KHTML, like Gecko) Chrome/118.0.0.0 Safari/537.36" etag="bZcm02HmIbkPdMReDg38" version="22.0.6" type="device">
  <diagram name="Trang-1" id="tuNZrCvgbJSQQVRdKziN">
    <mxGraphModel dx="3827" dy="2920" grid="1" gridSize="10" guides="1" tooltips="1" connect="1" arrows="1" fold="1" page="1" pageScale="1" pageWidth="827" pageHeight="1169" math="0" shadow="0">
      <root>
        <mxCell id="0" />
        <mxCell id="1" parent="0" />
        <mxCell id="J52oZPs5IR-9D26Ul253-16" style="rounded=0;orthogonalLoop=1;jettySize=auto;html=1;exitX=0.5;exitY=0.5;exitDx=0;exitDy=0;exitPerimeter=0;entryX=0;entryY=0.5;entryDx=0;entryDy=0;" edge="1" parent="1" source="J52oZPs5IR-9D26Ul253-3" target="J52oZPs5IR-9D26Ul253-8">
          <mxGeometry relative="1" as="geometry" />
        </mxCell>
        <mxCell id="J52oZPs5IR-9D26Ul253-17" style="rounded=0;orthogonalLoop=1;jettySize=auto;html=1;exitX=0.5;exitY=0.5;exitDx=0;exitDy=0;exitPerimeter=0;entryX=0;entryY=0.5;entryDx=0;entryDy=0;" edge="1" parent="1" source="J52oZPs5IR-9D26Ul253-3" target="J52oZPs5IR-9D26Ul253-13">
          <mxGeometry relative="1" as="geometry" />
        </mxCell>
        <mxCell id="J52oZPs5IR-9D26Ul253-25" style="rounded=0;orthogonalLoop=1;jettySize=auto;html=1;exitX=0.5;exitY=0.5;exitDx=0;exitDy=0;exitPerimeter=0;" edge="1" parent="1" source="J52oZPs5IR-9D26Ul253-3" target="J52oZPs5IR-9D26Ul253-24">
          <mxGeometry relative="1" as="geometry" />
        </mxCell>
        <mxCell id="J52oZPs5IR-9D26Ul253-27" style="rounded=0;orthogonalLoop=1;jettySize=auto;html=1;exitX=1;exitY=1;exitDx=0;exitDy=0;exitPerimeter=0;" edge="1" parent="1" source="J52oZPs5IR-9D26Ul253-3" target="J52oZPs5IR-9D26Ul253-26">
          <mxGeometry relative="1" as="geometry" />
        </mxCell>
        <mxCell id="J52oZPs5IR-9D26Ul253-3" value="Customer" style="shape=umlActor;verticalLabelPosition=bottom;verticalAlign=top;html=1;" vertex="1" parent="1">
          <mxGeometry x="-20" y="290" width="30" height="60" as="geometry" />
        </mxCell>
        <mxCell id="J52oZPs5IR-9D26Ul253-8" value="Login" style="ellipse;whiteSpace=wrap;html=1;" vertex="1" parent="1">
          <mxGeometry x="260" y="170" width="140" height="70" as="geometry" />
        </mxCell>
        <mxCell id="J52oZPs5IR-9D26Ul253-10" value="Food delivery" style="shape=umlFrame;whiteSpace=wrap;html=1;pointerEvents=0;" vertex="1" parent="1">
          <mxGeometry x="200" y="-70" width="840" height="1250" as="geometry" />
        </mxCell>
        <mxCell id="J52oZPs5IR-9D26Ul253-11" value="Create account" style="ellipse;whiteSpace=wrap;html=1;" vertex="1" parent="1">
          <mxGeometry x="480" y="160" width="140" height="70" as="geometry" />
        </mxCell>
        <mxCell id="J52oZPs5IR-9D26Ul253-12" value="Extends" style="endArrow=block;endSize=16;endFill=0;html=1;rounded=0;exitX=0;exitY=0.5;exitDx=0;exitDy=0;" edge="1" parent="1" source="J52oZPs5IR-9D26Ul253-11" target="J52oZPs5IR-9D26Ul253-8">
          <mxGeometry width="160" relative="1" as="geometry">
            <mxPoint x="470" y="200" as="sourcePoint" />
            <mxPoint x="460" y="420" as="targetPoint" />
          </mxGeometry>
        </mxCell>
        <mxCell id="J52oZPs5IR-9D26Ul253-13" value="Order food" style="ellipse;whiteSpace=wrap;html=1;" vertex="1" parent="1">
          <mxGeometry x="260" y="370" width="140" height="70" as="geometry" />
        </mxCell>
        <mxCell id="J52oZPs5IR-9D26Ul253-14" value="&amp;lt;&amp;lt;Include&amp;gt;" style="endArrow=open;endSize=12;dashed=1;html=1;rounded=0;entryX=0.571;entryY=1;entryDx=0;entryDy=0;entryPerimeter=0;exitX=0.587;exitY=0.014;exitDx=0;exitDy=0;exitPerimeter=0;" edge="1" parent="1" source="J52oZPs5IR-9D26Ul253-13" target="J52oZPs5IR-9D26Ul253-8">
          <mxGeometry width="160" relative="1" as="geometry">
            <mxPoint x="300" y="420" as="sourcePoint" />
            <mxPoint x="460" y="420" as="targetPoint" />
          </mxGeometry>
        </mxCell>
        <mxCell id="J52oZPs5IR-9D26Ul253-18" value="Add to cart" style="ellipse;whiteSpace=wrap;html=1;" vertex="1" parent="1">
          <mxGeometry x="450" y="410" width="140" height="70" as="geometry" />
        </mxCell>
        <mxCell id="J52oZPs5IR-9D26Ul253-19" value="&amp;lt;&amp;lt;Include&amp;gt;" style="endArrow=open;endSize=12;dashed=1;html=1;rounded=0;entryX=0;entryY=0;entryDx=0;entryDy=0;" edge="1" parent="1" source="J52oZPs5IR-9D26Ul253-13" target="J52oZPs5IR-9D26Ul253-18">
          <mxGeometry width="160" relative="1" as="geometry">
            <mxPoint x="352" y="381" as="sourcePoint" />
            <mxPoint x="350" y="250" as="targetPoint" />
          </mxGeometry>
        </mxCell>
        <mxCell id="J52oZPs5IR-9D26Ul253-20" value="Extends" style="endArrow=block;endSize=16;endFill=0;html=1;rounded=0;exitX=0.025;exitY=0.637;exitDx=0;exitDy=0;exitPerimeter=0;" edge="1" parent="1" source="J52oZPs5IR-9D26Ul253-21" target="J52oZPs5IR-9D26Ul253-13">
          <mxGeometry width="160" relative="1" as="geometry">
            <mxPoint x="610" y="404.44" as="sourcePoint" />
            <mxPoint x="770" y="404.44" as="targetPoint" />
          </mxGeometry>
        </mxCell>
        <mxCell id="J52oZPs5IR-9D26Ul253-21" value="Check out" style="ellipse;whiteSpace=wrap;html=1;" vertex="1" parent="1">
          <mxGeometry x="380" y="540" width="140" height="70" as="geometry" />
        </mxCell>
        <mxCell id="J52oZPs5IR-9D26Ul253-22" value="Search foods" style="ellipse;whiteSpace=wrap;html=1;" vertex="1" parent="1">
          <mxGeometry x="274" y="740" width="140" height="70" as="geometry" />
        </mxCell>
        <mxCell id="J52oZPs5IR-9D26Ul253-23" style="rounded=0;orthogonalLoop=1;jettySize=auto;html=1;exitX=0.5;exitY=0.5;exitDx=0;exitDy=0;exitPerimeter=0;entryX=0.022;entryY=0.695;entryDx=0;entryDy=0;entryPerimeter=0;" edge="1" parent="1" source="J52oZPs5IR-9D26Ul253-3" target="J52oZPs5IR-9D26Ul253-22">
          <mxGeometry relative="1" as="geometry" />
        </mxCell>
        <mxCell id="J52oZPs5IR-9D26Ul253-24" value="Track order" style="ellipse;whiteSpace=wrap;html=1;" vertex="1" parent="1">
          <mxGeometry x="280" y="670" width="140" height="60" as="geometry" />
        </mxCell>
        <mxCell id="J52oZPs5IR-9D26Ul253-26" value="Rating" style="ellipse;whiteSpace=wrap;html=1;" vertex="1" parent="1">
          <mxGeometry x="240" y="890" width="140" height="70" as="geometry" />
        </mxCell>
        <mxCell id="J52oZPs5IR-9D26Ul253-28" value="Like food or restaurant" style="ellipse;whiteSpace=wrap;html=1;" vertex="1" parent="1">
          <mxGeometry x="220" y="990" width="140" height="70" as="geometry" />
        </mxCell>
        <mxCell id="J52oZPs5IR-9D26Ul253-29" style="rounded=0;orthogonalLoop=1;jettySize=auto;html=1;exitX=1;exitY=1;exitDx=0;exitDy=0;exitPerimeter=0;entryX=0.019;entryY=0.637;entryDx=0;entryDy=0;entryPerimeter=0;" edge="1" parent="1" source="J52oZPs5IR-9D26Ul253-3" target="J52oZPs5IR-9D26Ul253-28">
          <mxGeometry relative="1" as="geometry" />
        </mxCell>
        <mxCell id="J52oZPs5IR-9D26Ul253-33" style="rounded=0;orthogonalLoop=1;jettySize=auto;html=1;exitX=0.5;exitY=0.5;exitDx=0;exitDy=0;exitPerimeter=0;" edge="1" parent="1" source="J52oZPs5IR-9D26Ul253-31" target="J52oZPs5IR-9D26Ul253-32">
          <mxGeometry relative="1" as="geometry" />
        </mxCell>
        <mxCell id="J52oZPs5IR-9D26Ul253-36" style="rounded=0;orthogonalLoop=1;jettySize=auto;html=1;exitX=0.5;exitY=0.5;exitDx=0;exitDy=0;exitPerimeter=0;entryX=1;entryY=0.5;entryDx=0;entryDy=0;" edge="1" parent="1" source="J52oZPs5IR-9D26Ul253-31" target="J52oZPs5IR-9D26Ul253-35">
          <mxGeometry relative="1" as="geometry" />
        </mxCell>
        <mxCell id="J52oZPs5IR-9D26Ul253-45" style="rounded=0;orthogonalLoop=1;jettySize=auto;html=1;exitX=0.5;exitY=0.5;exitDx=0;exitDy=0;exitPerimeter=0;entryX=1;entryY=0.5;entryDx=0;entryDy=0;" edge="1" parent="1" source="J52oZPs5IR-9D26Ul253-31" target="J52oZPs5IR-9D26Ul253-44">
          <mxGeometry relative="1" as="geometry" />
        </mxCell>
        <mxCell id="J52oZPs5IR-9D26Ul253-31" value="Restaurant" style="shape=umlActor;verticalLabelPosition=bottom;verticalAlign=top;html=1;" vertex="1" parent="1">
          <mxGeometry x="1200" y="300" width="30" height="60" as="geometry" />
        </mxCell>
        <mxCell id="J52oZPs5IR-9D26Ul253-32" value="Manage menu" style="ellipse;whiteSpace=wrap;html=1;" vertex="1" parent="1">
          <mxGeometry x="860" y="285" width="140" height="70" as="geometry" />
        </mxCell>
        <mxCell id="J52oZPs5IR-9D26Ul253-35" value="Receive order" style="ellipse;whiteSpace=wrap;html=1;" vertex="1" parent="1">
          <mxGeometry x="860" y="410" width="140" height="70" as="geometry" />
        </mxCell>
        <mxCell id="J52oZPs5IR-9D26Ul253-38" value="&amp;lt;&amp;lt;Include&amp;gt;" style="endArrow=open;endSize=12;dashed=1;html=1;rounded=0;" edge="1" parent="1" source="J52oZPs5IR-9D26Ul253-21" target="J52oZPs5IR-9D26Ul253-35">
          <mxGeometry width="160" relative="1" as="geometry">
            <mxPoint x="352" y="381" as="sourcePoint" />
            <mxPoint x="350" y="250" as="targetPoint" />
          </mxGeometry>
        </mxCell>
        <mxCell id="J52oZPs5IR-9D26Ul253-39" value="Log in" style="ellipse;whiteSpace=wrap;html=1;" vertex="1" parent="1">
          <mxGeometry x="860" y="160" width="140" height="70" as="geometry" />
        </mxCell>
        <mxCell id="J52oZPs5IR-9D26Ul253-40" style="rounded=0;orthogonalLoop=1;jettySize=auto;html=1;exitX=0.5;exitY=0.5;exitDx=0;exitDy=0;exitPerimeter=0;entryX=0.957;entryY=0.771;entryDx=0;entryDy=0;entryPerimeter=0;" edge="1" parent="1" source="J52oZPs5IR-9D26Ul253-31" target="J52oZPs5IR-9D26Ul253-39">
          <mxGeometry relative="1" as="geometry" />
        </mxCell>
        <mxCell id="J52oZPs5IR-9D26Ul253-41" value="Create account" style="ellipse;whiteSpace=wrap;html=1;" vertex="1" parent="1">
          <mxGeometry x="650" y="160" width="140" height="70" as="geometry" />
        </mxCell>
        <mxCell id="J52oZPs5IR-9D26Ul253-42" value="Extends" style="endArrow=block;endSize=16;endFill=0;html=1;rounded=0;" edge="1" parent="1" source="J52oZPs5IR-9D26Ul253-41" target="J52oZPs5IR-9D26Ul253-39">
          <mxGeometry width="160" relative="1" as="geometry">
            <mxPoint x="981.1162040827185" y="269.9958787283831" as="sourcePoint" />
            <mxPoint x="530" y="282.98" as="targetPoint" />
          </mxGeometry>
        </mxCell>
        <mxCell id="J52oZPs5IR-9D26Ul253-43" style="edgeStyle=orthogonalEdgeStyle;rounded=0;orthogonalLoop=1;jettySize=auto;html=1;exitX=0.5;exitY=1;exitDx=0;exitDy=0;" edge="1" parent="1" source="J52oZPs5IR-9D26Ul253-41" target="J52oZPs5IR-9D26Ul253-41">
          <mxGeometry relative="1" as="geometry" />
        </mxCell>
        <mxCell id="J52oZPs5IR-9D26Ul253-44" value="Update order status" style="ellipse;whiteSpace=wrap;html=1;" vertex="1" parent="1">
          <mxGeometry x="860" y="540" width="140" height="70" as="geometry" />
        </mxCell>
        <mxCell id="J52oZPs5IR-9D26Ul253-46" value="Delivery guy" style="shape=umlActor;verticalLabelPosition=bottom;verticalAlign=top;html=1;" vertex="1" parent="1">
          <mxGeometry x="1160" y="630" width="30" height="60" as="geometry" />
        </mxCell>
        <mxCell id="J52oZPs5IR-9D26Ul253-47" value="Delivering food" style="ellipse;whiteSpace=wrap;html=1;" vertex="1" parent="1">
          <mxGeometry x="827" y="690" width="140" height="70" as="geometry" />
        </mxCell>
        <mxCell id="J52oZPs5IR-9D26Ul253-48" value="Update shipmment status" style="ellipse;whiteSpace=wrap;html=1;" vertex="1" parent="1">
          <mxGeometry x="827" y="800" width="140" height="70" as="geometry" />
        </mxCell>
        <mxCell id="J52oZPs5IR-9D26Ul253-49" style="rounded=0;orthogonalLoop=1;jettySize=auto;html=1;entryX=1.017;entryY=0.606;entryDx=0;entryDy=0;entryPerimeter=0;exitX=0.5;exitY=0.5;exitDx=0;exitDy=0;exitPerimeter=0;" edge="1" parent="1" source="J52oZPs5IR-9D26Ul253-46" target="J52oZPs5IR-9D26Ul253-47">
          <mxGeometry relative="1" as="geometry">
            <mxPoint x="1170" y="710" as="sourcePoint" />
          </mxGeometry>
        </mxCell>
        <mxCell id="J52oZPs5IR-9D26Ul253-50" style="rounded=0;orthogonalLoop=1;jettySize=auto;html=1;exitX=0.5;exitY=0.5;exitDx=0;exitDy=0;exitPerimeter=0;entryX=0.92;entryY=0.806;entryDx=0;entryDy=0;entryPerimeter=0;" edge="1" parent="1" source="J52oZPs5IR-9D26Ul253-46" target="J52oZPs5IR-9D26Ul253-48">
          <mxGeometry relative="1" as="geometry" />
        </mxCell>
        <mxCell id="J52oZPs5IR-9D26Ul253-55" style="rounded=0;orthogonalLoop=1;jettySize=auto;html=1;exitX=0.5;exitY=0.5;exitDx=0;exitDy=0;exitPerimeter=0;entryX=1;entryY=0.5;entryDx=0;entryDy=0;" edge="1" parent="1" source="J52oZPs5IR-9D26Ul253-51" target="J52oZPs5IR-9D26Ul253-53">
          <mxGeometry relative="1" as="geometry" />
        </mxCell>
        <mxCell id="J52oZPs5IR-9D26Ul253-51" value="Admin" style="shape=umlActor;verticalLabelPosition=bottom;verticalAlign=top;html=1;" vertex="1" parent="1">
          <mxGeometry x="1120" y="980" width="30" height="60" as="geometry" />
        </mxCell>
        <mxCell id="J52oZPs5IR-9D26Ul253-52" value="Manages report and statitics" style="ellipse;whiteSpace=wrap;html=1;" vertex="1" parent="1">
          <mxGeometry x="827" y="1080" width="140" height="70" as="geometry" />
        </mxCell>
        <mxCell id="J52oZPs5IR-9D26Ul253-53" value="Manage account and restaurents" style="ellipse;whiteSpace=wrap;html=1;" vertex="1" parent="1">
          <mxGeometry x="828" y="990" width="140" height="70" as="geometry" />
        </mxCell>
        <mxCell id="J52oZPs5IR-9D26Ul253-56" style="rounded=0;orthogonalLoop=1;jettySize=auto;html=1;exitX=0.5;exitY=0.5;exitDx=0;exitDy=0;exitPerimeter=0;entryX=0.902;entryY=0.835;entryDx=0;entryDy=0;entryPerimeter=0;" edge="1" parent="1" source="J52oZPs5IR-9D26Ul253-51" target="J52oZPs5IR-9D26Ul253-52">
          <mxGeometry relative="1" as="geometry" />
        </mxCell>
      </root>
    </mxGraphModel>
  </diagram>
</mxfile>
